<?xml version="1.0" standalone="no"?>
<!DOCTYPE svg PUBLIC "-//W3C//DTD SVG 20010904//EN"
 "http://www.w3.org/TR/2001/REC-SVG-20010904/DTD/svg10.dtd">
<svg version="1.0" xmlns="http://www.w3.org/2000/svg"
 width="200.000000pt" height="160.000000pt" viewBox="0 0 200.000000 160.000000"
 preserveAspectRatio="xMidYMid meet">

<g transform="translate(0.000000,160.000000) scale(0.100000,-0.100000)"
fill="#ffffff" stroke="none">
<path d="M770 1504 c-44 -19 -100 -72 -100 -95 0 -11 -11 -19 -35 -23 -56 -11
-120 -79 -134 -143 -6 -29 -8 -59 -5 -68 4 -9 -1 -17 -12 -21 -60 -20 -106
-49 -124 -78 -24 -40 -27 -127 -5 -178 14 -34 13 -36 -17 -64 -36 -35 -67 -98
-68 -138 0 -38 35 -111 64 -134 20 -15 22 -24 18 -80 -10 -145 86 -251 229
-252 39 0 63 -6 80 -19 51 -39 87 -51 156 -51 55 0 78 6 118 28 l50 27 3 614
c2 690 8 635 -73 672 -48 22 -98 23 -145 3z m-12 -461 c67 -91 129 -208 138
-259 12 -77 -41 -170 -113 -200 -71 -30 -179 -9 -224 42 -62 71 -65 152 -10
259 40 76 140 225 153 225 3 0 29 -30 56 -67z"/>
<path d="M1162 1512 c-30 -9 -92 -60 -92 -75 0 -6 7 -1 16 12 19 27 88 60 124
61 14 0 42 -5 63 -11 44 -12 45 -22 17 -104 -11 -32 -20 -61 -20 -64 1 -16 21
30 35 78 9 29 18 52 20 50 2 -2 20 -49 40 -104 21 -55 42 -104 47 -110 5 -5
-7 33 -26 85 -53 146 -51 139 -27 111 12 -13 21 -32 21 -42 0 -12 7 -19 20
-19 27 0 90 -31 90 -44 0 -6 -9 -30 -20 -53 -10 -24 -15 -43 -11 -43 5 0 11
10 14 23 4 12 13 31 22 42 l15 20 13 -20 c6 -11 17 -33 24 -50 7 -19 12 -23
12 -12 3 55 -90 147 -148 147 -13 0 -21 7 -21 18 -1 24 -39 67 -78 86 -38 19
-116 29 -150 18z"/>
<path d="M1065 1400 c-3 -5 -1 -10 4 -10 6 0 11 5 11 10 0 6 -2 10 -4 10 -3 0
-8 -4 -11 -10z"/>
<path d="M1063 1355 c0 -8 4 -12 8 -9 4 2 38 -7 75 -21 37 -14 69 -23 72 -20
3 2 -4 7 -14 11 -10 3 -45 17 -77 30 -69 28 -64 28 -64 9z"/>
<path d="M1240 1305 c-25 -30 15 -70 45 -45 19 16 19 25 -1 44 -19 20 -28 20
-44 1z"/>
<path d="M1060 1288 c0 -12 3 -18 7 -14 11 10 12 36 2 36 -5 0 -9 -10 -9 -22z"/>
<path d="M1310 1256 c0 -7 72 -47 77 -43 2 3 -12 14 -32 26 -36 21 -45 24 -45
17z"/>
<path d="M1240 1219 c0 -8 -5 -30 -10 -50 -8 -30 -23 -45 -77 -80 -37 -24 -72
-43 -78 -41 -7 1 -12 -5 -12 -13 0 -10 6 -14 14 -10 8 3 31 6 51 6 36 1 36 2
7 8 l-29 6 53 34 c29 19 59 40 66 47 13 13 29 93 20 102 -3 3 -5 -1 -5 -9z"/>
<path d="M1415 1216 c-25 -18 -11 -58 18 -54 15 2 23 11 25 29 4 31 -18 44
-43 25z"/>
<path d="M1561 1204 c0 -11 3 -14 6 -6 3 7 2 16 -1 19 -3 4 -6 -2 -5 -13z"/>
<path d="M1552 1166 c2 -12 19 -23 48 -33 51 -17 88 -47 101 -82 8 -20 5 -30
-23 -59 -18 -18 -45 -42 -59 -52 l-25 -19 -64 110 c-34 60 -67 112 -73 116 -6
4 -2 -9 10 -28 76 -126 114 -201 109 -215 -9 -23 7 -14 56 31 84 78 82 78 75
15 -4 -37 -3 -50 3 -40 18 28 12 130 -10 166 -19 29 -89 74 -118 74 -6 0 -16
8 -22 18 -10 16 -11 16 -8 -2z"/>
<path d="M1402 1125 c-17 -37 -14 -45 4 -12 9 16 14 31 11 33 -2 2 -9 -7 -15
-21z"/>
<path d="M1349 1059 c-9 -17 -8 -25 4 -37 29 -28 73 12 47 43 -17 21 -37 19
-51 -6z"/>
<path d="M1187 1064 c-13 -13 -7 -52 9 -58 22 -9 46 13 42 38 -3 21 -37 34
-51 20z"/>
<path d="M1278 1043 c12 -2 30 -2 40 0 9 3 -1 5 -23 4 -22 0 -30 -2 -17 -4z"/>
<path d="M1060 995 c0 -8 4 -15 8 -15 5 0 9 7 9 15 0 8 -4 15 -9 15 -4 0 -8
-7 -8 -15z"/>
<path d="M1285 964 c-43 -47 -178 -139 -183 -124 -2 5 8 26 21 47 31 50 59
103 53 103 -3 0 -24 -34 -47 -75 -23 -41 -46 -72 -50 -70 -4 3 -5 32 -2 65 2
33 1 60 -4 60 -4 0 -8 -38 -8 -85 -1 -47 2 -85 6 -85 3 0 41 23 84 51 43 28
81 47 85 42 21 -22 50 -128 44 -157 -6 -30 -5 -30 10 -11 8 11 16 29 16 40 0
11 6 29 13 41 17 30 90 114 98 114 4 0 12 -14 18 -31 10 -29 7 -35 -34 -88
-25 -32 -45 -61 -45 -66 0 -5 23 20 50 56 38 48 49 70 45 87 -5 21 -4 22 17
12 17 -8 15 -4 -9 17 -17 15 -38 42 -47 58 l-15 30 5 -32 c6 -28 0 -39 -36
-80 -23 -26 -47 -58 -53 -70 -6 -13 -13 -23 -17 -23 -4 0 -18 27 -30 61 l-23
60 49 50 c26 27 44 48 39 48 -6 -1 -28 -21 -50 -45z"/>
<path d="M1600 898 c0 -3 27 -63 61 -133 l60 -128 -29 -41 c-19 -25 -41 -43
-58 -47 -26 -6 -26 -7 -5 -8 22 -1 23 -2 7 -26 -9 -14 -23 -36 -32 -50 -32
-49 -6 -24 31 30 21 30 42 55 45 55 25 0 26 -132 1 -185 -16 -37 -47 -73 -55
-64 -1 2 -11 15 -21 29 -13 18 -16 20 -10 5 17 -47 16 -54 -10 -71 -17 -11
-50 -18 -95 -19 -56 -2 -74 -7 -102 -29 -19 -14 -52 -32 -74 -40 -27 -10 -32
-15 -18 -15 12 -1 45 15 74 34 41 28 62 35 99 35 102 0 177 43 217 126 23 46
26 64 22 121 -4 63 -2 70 20 87 30 24 62 91 62 131 0 41 -31 104 -68 139 -18
17 -28 35 -25 45 4 14 3 13 -7 -1 -9 -14 -4 -24 28 -57 43 -45 66 -107 57
-154 -9 -40 -53 -107 -71 -107 -19 0 -18 7 7 46 l20 33 -57 123 c-53 112 -74
152 -74 136z"/>
<path d="M1512 881 c-23 -14 -10 -46 21 -49 26 -3 28 -1 25 25 -3 29 -23 39
-46 24z"/>
<path d="M1515 784 c-4 -16 -10 -43 -15 -60 -5 -21 -1 -46 12 -83 11 -29 22
-50 24 -48 3 2 -4 26 -14 53 -18 44 -18 52 -5 102 8 30 12 56 9 59 -3 3 -8 -8
-11 -23z"/>
<path d="M1060 734 c0 -19 4 -33 8 -30 8 5 4 66 -4 66 -2 0 -4 -16 -4 -36z"/>
<path d="M1310 714 c-19 -22 -8 -49 20 -49 33 0 42 49 11 58 -11 3 -25 -1 -31
-9z"/>
<path d="M1060 679 c0 -5 5 -7 10 -4 6 3 10 8 10 11 0 2 -4 4 -10 4 -5 0 -10
-5 -10 -11z"/>
<path d="M1143 653 c20 -2 54 -2 75 0 20 2 3 4 -38 4 -41 0 -58 -2 -37 -4z"/>
<path d="M1371 655 c15 -15 132 -85 136 -82 4 5 -122 87 -133 87 -4 0 -5 -2
-3 -5z"/>
<path d="M1272 620 c-13 -16 -19 -30 -14 -30 4 0 16 14 25 30 10 17 16 30 14
30 -2 0 -13 -13 -25 -30z"/>
<path d="M1063 595 c0 -22 2 -30 4 -17 2 12 2 30 0 40 -3 9 -5 -1 -4 -23z"/>
<path d="M1197 566 c-11 -28 4 -47 32 -44 20 2 26 8 26 28 0 20 -6 26 -26 28
-17 2 -29 -3 -32 -12z"/>
<path d="M1530 556 c-27 -33 18 -72 48 -42 13 13 14 20 6 34 -15 23 -38 26
-54 8z"/>
<path d="M1062 526 c-1 -14 2 -16 11 -7 6 6 30 11 54 11 24 0 43 3 43 8 0 4
-24 7 -53 7 -45 0 -53 -3 -55 -19z"/>
<path d="M1440 459 c-100 -77 -116 -100 -20 -29 100 75 107 80 95 79 -6 0 -39
-23 -75 -50z"/>
<path d="M1247 475 c3 -16 12 -43 20 -60 l14 -30 -6 29 c-3 16 -12 43 -20 60
l-14 31 6 -30z"/>
<path d="M1540 416 c-27 -33 18 -72 48 -42 13 13 14 20 6 34 -15 23 -38 26
-54 8z"/>
<path d="M1442 378 c-24 -5 -42 -12 -39 -15 6 -5 117 16 117 23 0 6 -29 3 -78
-8z"/>
<path d="M1280 365 c-19 -23 -8 -50 20 -50 16 0 26 6 28 18 4 18 -14 47 -28
47 -4 0 -13 -7 -20 -15z"/>
<path d="M1368 353 c7 -3 16 -2 19 1 4 3 -2 6 -13 5 -11 0 -14 -3 -6 -6z"/>
<path d="M1061 273 c0 -21 6 -40 19 -53 25 -25 94 -60 117 -59 17 0 17 1 0 8
-17 6 -15 11 18 56 69 92 55 85 -21 -9 -30 -38 -31 -38 -60 -23 -40 21 -62 47
-67 82 l-4 30 -2 -32z"/>
</g>
</svg>
