<?xml version="1.0" standalone="no"?>
<!DOCTYPE svg PUBLIC "-//W3C//DTD SVG 20010904//EN"
 "http://www.w3.org/TR/2001/REC-SVG-20010904/DTD/svg10.dtd">
<svg version="1.0" xmlns="http://www.w3.org/2000/svg"
 width="900.000000pt" height="1100.000000pt" viewBox="0 0 900.000000 1100.000000"
 preserveAspectRatio="xMidYMid meet">

<g transform="translate(0.000000,1100.000000) scale(0.100000,-0.100000)"
fill="#338fcc" stroke="none">
<path d="M2448 10929 c-30 -11 -36 -30 -15 -47 6 -6 41 -18 76 -27 76 -19 160
-60 168 -80 8 -22 76 -19 96 3 23 26 21 45 -8 80 -38 46 -116 75 -210 78 -44
2 -92 -1 -107 -7z m167 -9 c45 -17 18 -28 -57 -22 -80 5 -83 6 -73 21 8 14 95
14 130 1z"/>
<path d="M6140 10933 c8 -2 21 -7 29 -9 24 -8 2 -18 -52 -24 -29 -4 -57 -9
-63 -11 -7 -2 -14 1 -15 6 -2 6 12 16 31 23 l35 12 -39 -6 c-83 -12 -195 -66
-219 -105 -6 -9 -7 -24 -4 -34 9 -22 55 -16 152 19 39 14 113 30 165 37 156
19 208 60 110 86 -43 11 -162 17 -130 6z"/>
<path d="M3324 10900 c-194 -22 -251 -98 -100 -134 16 -4 105 -11 197 -15 147
-7 174 -11 216 -32 65 -32 69 -60 14 -88 -102 -52 -538 -77 -811 -45 -75 8
-254 17 -400 19 -304 4 -353 10 -545 64 -150 42 -291 72 -334 70 -23 -2 -24
-2 -3 -6 12 -2 22 -8 22 -13 0 -4 -59 -8 -131 -9 -116 -1 -130 1 -125 15 5 14
1 15 -31 9 -45 -8 -83 -30 -83 -49 0 -23 52 -37 162 -45 106 -7 133 -15 122
-32 -13 -22 -66 -31 -234 -40 -96 -5 -191 -13 -210 -18 -35 -9 3517 -6 4570 4
289 3 923 6 1410 6 487 1 872 4 855 6 -16 2 -120 18 -230 36 -174 28 -224 32
-385 31 -102 0 -224 -2 -271 -5 -87 -4 -119 6 -119 36 0 21 26 26 193 41 167
15 218 29 237 64 18 34 -18 65 -103 87 -99 25 -378 25 -530 0 -133 -23 -320
-70 -540 -136 -394 -120 -771 -156 -1037 -102 -108 23 -137 24 -495 25 -479 1
-474 0 -803 175 -51 28 -122 56 -160 65 -87 19 -228 26 -318 16z m111 -20 c7
-12 -39 -24 -60 -16 -8 3 -15 10 -15 16 0 13 67 13 75 0z m-110 -20 c3 -5 -6
-12 -20 -16 -18 -4 -25 -13 -25 -31 0 -22 -3 -24 -42 -21 -35 2 -43 7 -43 23
0 35 112 74 130 45z m3808 -5 c10 -4 16 -13 14 -19 -6 -18 -77 -25 -162 -15
-44 5 -119 6 -167 3 -59 -4 -88 -3 -88 4 0 11 74 29 145 36 58 6 237 -1 258
-9z m-468 -35 c9 -14 -45 -32 -75 -25 -24 6 -24 7 -6 21 23 16 72 19 81 4z
m-4990 -110 c4 -6 -7 -10 -25 -10 -18 0 -29 4 -25 10 3 6 15 10 25 10 10 0 22
-4 25 -10z"/>
<path d="M4161 10889 c-55 -11 -91 -34 -91 -58 0 -30 45 -76 96 -100 80 -38
226 -39 155 -2 -25 14 -33 60 -15 95 17 35 6 52 -39 61 -18 4 -39 8 -47 10 -8
1 -35 -1 -59 -6z m69 -18 c0 -5 -13 -12 -29 -16 -16 -3 -32 -13 -35 -21 -7
-18 -30 -18 -45 0 -10 11 -7 17 11 30 24 17 98 22 98 7z"/>
<path d="M5520 10891 c0 -12 -59 -20 -66 -9 -6 10 -55 -15 -74 -37 -20 -25 6
-38 40 -20 14 7 55 19 90 26 74 15 99 27 78 40 -17 12 -68 11 -68 0z"/>
<path d="M1146 10867 c-19 -14 -18 -15 15 -25 19 -6 66 -11 104 -10 39 0 99
-3 135 -7 59 -6 64 -5 50 9 -19 19 -152 54 -157 40 -3 -9 -61 -9 -103 1 -15 4
-33 0 -44 -8z"/>
<path d="M1872 10871 c-87 -15 -78 -53 16 -71 100 -19 176 -42 225 -68 40 -20
52 -23 73 -14 51 24 21 76 -69 118 -53 24 -100 34 -64 13 9 -5 17 -15 17 -21
0 -6 -7 -7 -17 -3 -10 5 -36 11 -58 14 -31 5 -39 10 -37 24 3 19 -10 20 -86 8z"/>
<path d="M7677 10863 c-60 -17 -75 -39 -21 -30 21 4 77 7 124 7 80 0 123 10
108 26 -13 13 -165 11 -211 -3z"/>
<path d="M1998 10863 c6 -2 18 -2 25 0 6 3 1 5 -13 5 -14 0 -19 -2 -12 -5z"/>
<path d="M4745 10825 c-104 -19 -182 -46 -206 -72 -21 -21 -21 -23 -4 -29 10
-4 43 -2 74 6 31 7 139 15 240 17 180 4 251 16 251 42 0 18 -61 43 -114 46
-28 1 -41 1 -28 -2 51 -10 16 -23 -65 -23 -90 0 -103 9 -30 21 l42 6 -45 1
c-25 0 -76 -6 -115 -13z"/>
<path d="M1398 10743 c23 -2 61 -2 85 0 23 2 4 4 -43 4 -47 0 -66 -2 -42 -4z"/>
<path d="M7526 10735 c-21 -7 -46 -21 -55 -29 -14 -15 -9 -16 51 -16 84 0 168
17 168 35 0 7 -9 15 -20 18 -11 3 -20 1 -20 -4 0 -5 -11 -9 -25 -9 -14 0 -25
5 -25 10 0 14 -27 12 -74 -5z"/>
<path d="M5394 10730 c-75 -15 -154 -57 -154 -82 0 -20 251 -2 313 23 34 14
35 36 3 51 -20 8 -28 7 -41 -6 -27 -27 -97 -17 -74 10 13 15 12 15 -47 4z"/>
<path d="M2413 10723 c-37 -7 -27 -31 15 -38 20 -4 57 -13 82 -21 81 -28 90
-28 90 -7 0 25 -48 52 -82 46 -17 -3 -38 1 -53 11 -13 9 -26 15 -27 15 -2 -1
-13 -4 -25 -6z"/>
<path d="M3146 10707 c3 -10 -2 -18 -14 -22 -25 -7 -74 4 -66 16 9 15 -20 10
-44 -7 -32 -22 -14 -40 56 -55 67 -13 266 -18 279 -6 17 18 -88 67 -175 82
-35 6 -41 4 -36 -8z"/>
<path d="M7785 10663 c-48 -12 -27 -18 65 -20 55 -1 102 2 105 7 4 6 3 10 -2
10 -4 0 -39 2 -78 4 -38 2 -79 2 -90 -1z"/>
<path d="M1060 10629 c0 -12 31 -19 88 -19 49 1 54 2 37 12 -21 13 -125 19
-125 7z"/>
<path d="M893 10365 c-17 -83 -23 -145 -32 -330 -9 -157 -21 -215 -47 -215
-22 0 -26 18 -40 162 -17 178 -41 222 -93 167 -20 -21 -42 -100 -40 -142 1
-21 1 -21 8 2 11 42 29 35 36 -13 4 -25 4 -54 0 -63 -3 -10 -6 -64 -6 -120 0
-58 -4 -103 -9 -103 -12 0 -21 48 -30 168 -7 94 -7 94 -8 27 -4 -156 36 -369
112 -612 62 -195 74 -298 80 -683 4 -239 10 -370 25 -495 26 -208 27 -446 5
-716 -23 -289 -52 -401 -109 -415 -74 -19 -112 104 -125 410 -9 205 -20 268
-57 308 -52 58 -114 -32 -143 -208 -14 -86 -12 -276 4 -374 20 -117 54 -212
116 -322 150 -262 183 -343 215 -511 28 -147 34 -324 22 -617 -12 -321 -2
-496 40 -690 24 -114 26 -144 26 -335 0 -278 -27 -518 -89 -808 -24 -110 -46
-192 -138 -507 -110 -374 -165 -659 -186 -962 -20 -290 19 -595 87 -670 22
-25 65 -23 91 5 48 51 66 139 82 407 10 173 20 229 47 255 15 15 17 15 35 -2
31 -32 44 -131 29 -226 -19 -120 -26 -452 -12 -587 6 -63 29 -232 50 -375 22
-143 45 -312 53 -375 11 -98 13 239 16 2323 4 4464 -2 7309 -15 7242z m-193
-751 c0 -19 -4 -34 -10 -34 -13 0 -24 45 -16 66 10 25 26 6 26 -32z m-130
-1993 c13 -33 5 -90 -13 -92 -7 -1 -21 -2 -31 -3 -12 -1 -23 -13 -31 -36 -11
-29 -14 -32 -20 -17 -13 31 1 113 24 146 28 39 55 40 71 2z m-102 -244 c2 -20
-1 -44 -6 -53 -9 -15 -11 -15 -22 5 -14 28 -5 94 13 88 7 -2 13 -20 15 -40z
m82 -4608 c0 -53 -15 -93 -31 -84 -12 8 -12 101 2 126 16 31 29 12 29 -42z
m-39 -312 c-10 -91 -11 -136 -1 -224 14 -128 11 -266 -8 -285 -10 -10 -16 -9
-30 5 -15 16 -17 42 -17 240 0 141 5 247 13 291 16 83 29 113 45 97 7 -7 7
-43 -2 -124z"/>
<path d="M8091 5538 c-1 -2678 1 -4868 3 -4868 2 0 9 51 15 113 7 61 23 184
37 272 14 88 34 223 45 300 27 178 36 498 19 650 -22 203 -23 217 -11 270 7
29 20 60 30 69 17 15 20 16 34 1 27 -26 37 -82 48 -255 16 -273 32 -354 77
-402 94 -101 168 63 187 412 17 328 -63 804 -225 1330 -136 440 -193 794 -193
1195 0 191 2 221 26 334 42 195 52 362 40 687 -22 559 19 772 207 1079 86 140
123 237 146 375 20 123 18 306 -5 418 -22 103 -44 150 -83 172 -24 13 -29 13
-47 -4 -40 -36 -52 -100 -61 -311 -9 -220 -26 -318 -66 -377 -52 -79 -107 -30
-139 122 -22 104 -45 429 -45 630 0 114 7 236 21 350 14 124 23 281 29 540 9
407 12 430 85 665 63 204 95 368 100 522 4 125 4 126 -4 31 -5 -54 -12 -113
-15 -133 -13 -66 -26 -35 -25 59 0 51 -3 110 -6 130 -15 75 17 139 37 75 4
-14 5 -2 2 29 -9 93 -52 153 -88 123 -20 -17 -34 -82 -42 -196 -7 -110 -17
-145 -37 -145 -27 0 -39 56 -48 220 -9 176 -26 331 -39 365 -5 11 -9 -2170 -9
-4847z m239 4073 c0 -9 -7 -26 -15 -37 -13 -18 -14 -17 -15 17 0 20 3 39 6 42
10 10 24 -2 24 -22z m171 -2013 c16 -21 24 -51 27 -90 5 -64 -9 -78 -27 -27
-7 20 -17 30 -28 29 -35 -4 -41 0 -48 31 -9 39 11 89 36 89 9 0 28 -14 40 -32z
m64 -232 c8 -40 -11 -88 -26 -65 -10 16 -12 83 -2 92 14 14 22 6 28 -27z m-75
-4635 c0 -59 -13 -82 -29 -53 -12 23 -15 115 -4 126 14 14 33 -28 33 -73z m37
-243 c21 -92 29 -471 11 -522 -29 -86 -58 -42 -58 87 0 45 5 123 11 172 9 68
8 117 -1 202 -7 62 -9 120 -6 129 11 28 28 1 43 -68z"/>
<path d="M786 10351 c-4 -6 -4 -20 -1 -32 4 -11 1 -27 -5 -35 -10 -11 -9 -24
5 -59 26 -69 39 -57 32 29 -6 78 -19 118 -31 97z"/>
<path d="M8195 10320 c-4 -6 -9 -44 -12 -85 -7 -87 6 -99 32 -30 14 35 15 48
6 59 -7 8 -9 25 -5 40 6 26 -8 37 -21 16z"/>
<path d="M466 10233 c-4 -16 -9 -36 -12 -46 -4 -11 -1 -17 8 -15 9 2 13 -12
14 -49 1 -30 -3 -53 -8 -53 -29 0 27 -192 59 -204 13 -6 15 1 9 41 -4 27 -11
111 -14 188 -4 77 -11 146 -15 153 -14 21 -35 13 -41 -15z"/>
<path d="M8493 10228 c-4 -7 -11 -76 -15 -153 -3 -77 -9 -159 -13 -182 -11
-61 16 -58 43 5 24 54 41 159 25 149 -6 -4 -10 16 -11 54 -1 49 2 60 14 55 11
-4 13 0 8 22 -14 57 -34 76 -51 50z"/>
<path d="M492 9417 c-17 -21 -32 -90 -32 -152 0 -112 50 -254 110 -312 39 -38
73 -42 94 -11 22 31 20 58 -8 99 -31 45 -61 138 -82 248 -9 47 -20 94 -25 103
-14 27 -45 40 -57 25z m13 -204 c3 -21 11 -55 17 -76 13 -42 3 -61 -17 -33
-18 23 -36 110 -29 131 10 26 23 16 29 -22z"/>
<path d="M8462 9385 c-12 -15 -25 -56 -32 -98 -15 -97 -56 -222 -86 -266 -28
-41 -30 -68 -8 -99 49 -70 146 35 190 208 28 110 7 280 -36 280 -4 0 -17 -11
-28 -25z m62 -170 c7 -21 -11 -108 -29 -131 -20 -28 -30 -9 -17 33 6 21 14 55
17 76 6 38 19 48 29 22z"/>
<path d="M676 8691 c-4 -5 -9 -31 -12 -58 -4 -34 -3 -44 5 -33 12 17 15 10 26
-54 6 -35 5 -38 -9 -27 -26 22 5 -47 37 -82 22 -24 30 -27 42 -17 20 16 19 26
-5 76 -11 23 -27 74 -36 114 -8 41 -17 77 -20 82 -7 11 -21 10 -28 -1z"/>
<path d="M8292 8653 c-5 -15 -15 -53 -21 -84 -7 -31 -21 -74 -31 -95 -24 -45
-25 -58 -6 -73 19 -16 60 21 82 74 15 37 15 38 -1 25 -15 -13 -16 -10 -10 26
11 63 14 71 25 54 7 -11 9 -7 9 15 -2 74 -29 106 -47 58z"/>
<path d="M388 8628 c-9 -15 -13 -63 -13 -138 0 -104 3 -120 27 -173 32 -68 59
-105 96 -129 38 -25 59 -22 93 11 36 37 40 92 8 119 -45 37 -96 143 -120 250
-17 77 -64 108 -91 60z m32 -118 c0 -32 4 -70 10 -84 11 -29 3 -59 -14 -53
-27 9 -43 161 -20 198 13 22 24 -6 24 -61z"/>
<path d="M8548 8613 c-9 -10 -25 -52 -36 -93 -28 -100 -65 -180 -102 -215 -41
-39 -41 -85 -1 -126 34 -33 55 -36 93 -11 37 24 64 61 95 128 50 109 41 324
-13 332 -11 2 -27 -5 -36 -15z m67 -106 c7 -48 -13 -148 -31 -154 -17 -6 -25
24 -14 53 6 14 10 51 10 83 0 32 3 61 6 64 13 12 23 -4 29 -46z"/>
<path d="M700 7868 c-24 -39 -26 -70 -5 -62 19 8 30 -38 19 -77 -12 -40 -27
-41 -36 -4 -4 18 -6 1 -3 -41 6 -116 87 -295 115 -254 27 41 0 393 -34 445
-22 33 -32 31 -56 -7z"/>
<path d="M8244 7855 c-23 -35 -44 -190 -44 -320 0 -119 8 -147 34 -126 39 32
97 202 95 277 -1 30 -2 34 -7 16 -10 -36 -26 -31 -36 10 -11 44 8 104 25 77 7
-11 9 -10 9 6 0 24 -36 85 -50 85 -5 0 -17 -11 -26 -25z"/>
<path d="M475 6436 c-63 -63 -72 -238 -16 -307 l18 -22 37 22 c50 31 109 25
141 -15 34 -42 49 -24 42 50 -11 118 -68 236 -132 276 -42 26 -61 25 -90 -4z
m39 -52 c10 -27 7 -52 -8 -57 -8 -3 -20 -24 -27 -47 -16 -54 -34 -45 -34 17 1
73 50 136 69 87z"/>
<path d="M8433 6419 c-63 -40 -119 -158 -130 -275 -7 -74 8 -92 42 -50 31 39
91 46 139 17 40 -25 50 -22 71 19 40 77 23 233 -30 286 -29 29 -50 30 -92 3z
m96 -58 c32 -32 42 -129 14 -138 -7 -3 -16 12 -23 35 -5 22 -17 43 -25 46 -16
6 -19 33 -9 60 8 21 20 20 43 -3z"/>
<path d="M616 5810 c-36 -43 -52 -85 -81 -204 -35 -143 -51 -333 -36 -432 21
-145 65 -190 106 -109 18 36 21 68 26 315 5 205 11 289 23 330 19 67 20 91 3
114 -13 17 -15 16 -41 -14z m-76 -504 c0 -109 -11 -151 -27 -109 -10 23 -9
136 1 186 14 73 26 37 26 -77z"/>
<path d="M8343 5809 c-17 -17 -16 -53 3 -119 12 -41 17 -125 22 -330 6 -247 9
-279 27 -315 41 -81 88 -32 107 113 17 127 -11 360 -63 524 -25 79 -77 147
-96 127z m143 -446 c10 -50 11 -163 1 -186 -16 -42 -27 0 -27 109 0 114 12
150 26 77z"/>
<path d="M737 4802 c-42 -46 -97 -217 -96 -297 1 -41 3 -40 14 8 5 24 8 27 20
17 28 -23 14 -133 -14 -116 -15 10 -14 -18 3 -59 20 -46 48 -46 70 -1 25 54
47 225 44 348 -3 115 -11 134 -41 100z"/>
<path d="M8227 4793 c-13 -12 -7 -227 8 -326 8 -54 22 -114 31 -133 22 -45 50
-45 70 1 17 41 18 69 3 59 -28 -17 -40 77 -15 112 15 20 17 18 30 -31 3 -11 3
11 0 48 -5 74 -40 180 -80 240 -24 37 -34 43 -47 30z"/>
<path d="M470 4593 c-19 -24 -50 -86 -50 -100 0 -2 5 -1 11 3 9 5 10 -7 4 -42
-8 -59 -14 -70 -27 -53 -6 9 -7 -5 -3 -41 12 -102 47 -90 65 23 7 40 23 100
37 135 13 34 23 70 21 79 -5 28 -34 26 -58 -4z"/>
<path d="M8477 4593 c-12 -12 -7 -43 12 -82 11 -21 27 -78 36 -127 25 -132 57
-153 70 -44 4 36 3 50 -3 41 -13 -17 -19 -6 -27 53 -6 35 -5 47 4 42 14 -9 14
-6 -3 35 -27 66 -68 103 -89 82z"/>
<path d="M641 4444 c0 -11 3 -14 6 -6 3 7 2 16 -1 19 -3 4 -6 -2 -5 -13z"/>
<path d="M512 3915 c-88 -74 -162 -301 -162 -498 0 -146 27 -225 67 -201 33
19 55 83 69 197 18 157 49 291 84 364 34 71 38 122 12 146 -25 23 -35 21 -70
-8z m-96 -302 c-4 -21 -11 -68 -15 -105 -7 -74 -24 -105 -36 -68 -15 47 22
210 47 210 7 0 8 -14 4 -37z"/>
<path d="M8417 3902 c-25 -27 -21 -72 13 -145 34 -71 75 -250 85 -367 16 -183
86 -263 123 -139 18 63 16 236 -4 328 -27 122 -81 248 -129 298 -46 47 -63 52
-88 25z m197 -319 c21 -66 30 -127 22 -159 -11 -44 -29 -13 -37 64 -4 37 -11
84 -15 105 -10 54 11 47 30 -10z"/>
<path d="M657 1393 c-14 -32 -30 -82 -35 -111 -8 -46 -7 -52 7 -50 10 2 17 -5
19 -21 5 -32 -7 -73 -18 -66 -17 11 -11 -22 9 -46 l18 -23 16 25 c20 32 37
147 37 258 0 110 -15 119 -53 34z"/>
<path d="M8290 1339 c0 -111 17 -226 37 -258 l16 -25 18 23 c19 24 26 57 10
47 -11 -7 -21 17 -21 53 0 35 9 44 28 28 12 -10 14 -9 9 8 -3 11 -8 38 -12 60
-9 56 -55 155 -71 155 -11 0 -14 -21 -14 -91z"/>
<path d="M461 1148 c-26 -62 -47 -181 -33 -186 14 -4 16 -118 3 -126 -5 -4
-12 0 -15 6 -9 22 5 -46 16 -75 10 -26 12 -27 27 -12 13 12 17 49 23 178 4 89
10 183 14 210 9 61 -10 63 -35 5z"/>
<path d="M8505 1118 c4 -29 10 -123 13 -209 5 -113 11 -161 21 -173 14 -16 15
-16 27 6 16 28 18 65 4 73 -14 9 -13 122 1 127 15 5 -5 127 -31 186 -27 61
-45 56 -35 -10z"/>
<path d="M762 977 c-20 -48 -26 -133 -12 -198 9 -41 10 -63 3 -67 -10 -7 0
-52 12 -52 17 0 23 63 16 196 -6 128 -9 145 -19 121z"/>
<path d="M8220 895 c0 -50 -3 -119 -6 -155 -4 -50 -2 -70 9 -85 15 -20 16 -20
25 5 6 16 6 27 -1 31 -6 5 -5 29 4 73 10 52 10 81 2 133 -18 103 -33 102 -33
-2z"/>
<path d="M1050 449 c19 -5 114 -13 210 -18 165 -9 240 -22 240 -41 0 -18 -26
-24 -128 -31 -110 -8 -162 -22 -162 -45 0 -19 38 -41 83 -49 32 -6 36 -5 31 9
-5 14 9 16 125 15 72 -1 131 -5 131 -9 0 -5 -10 -11 -22 -13 -19 -4 -18 -5 5
-6 40 -2 202 32 327 69 183 53 252 61 550 65 159 2 330 11 405 20 264 31 705
6 806 -46 55 -28 51 -56 -14 -88 -42 -21 -69 -25 -216 -32 -176 -8 -208 -13
-254 -36 -20 -10 -27 -20 -25 -36 8 -59 208 -98 392 -78 123 14 196 39 316
106 146 81 173 93 272 122 l93 27 385 2 c361 1 392 3 500 25 95 19 143 23 275
22 279 -2 476 -38 918 -168 291 -85 423 -108 652 -109 154 -1 203 2 262 17 85
22 121 53 103 87 -19 35 -69 49 -237 64 -168 16 -193 21 -193 41 0 31 32 40
119 35 47 -2 172 -4 276 -4 165 0 215 4 380 32 105 17 206 33 225 35 19 2
-325 5 -765 5 -440 1 -1095 4 -1455 7 -1345 10 -4645 13 -4610 4z m625 -159
c-3 -5 -15 -10 -25 -10 -10 0 -22 5 -25 10 -4 6 7 10 25 10 18 0 29 -4 25 -10z
m1605 -104 c0 -15 7 -26 20 -29 29 -7 25 -27 -5 -27 -31 0 -90 23 -100 39 -14
24 4 41 45 41 35 0 40 -3 40 -24z m3365 14 c14 -5 23 -14 20 -20 -8 -13 -55
-13 -75 0 -13 9 -13 11 0 20 19 12 23 12 55 0z m500 -31 c40 -39 -197 -50
-362 -18 -88 17 -64 32 40 25 50 -3 121 -2 157 3 71 10 149 5 165 -10z m-3721
-35 c25 -10 8 -24 -30 -24 -32 0 -42 8 -27 23 8 9 36 9 57 1z"/>
<path d="M1073 383 c-7 -2 -13 -8 -13 -12 0 -12 103 -6 125 7 17 10 11 11 -40
11 -33 0 -66 -3 -72 -6z"/>
<path d="M3165 373 c-72 -6 -143 -24 -155 -38 -8 -10 -6 -17 12 -29 24 -17 53
-22 44 -7 -8 12 41 23 66 16 12 -4 17 -12 14 -22 -5 -12 1 -14 36 -8 53 9 138
40 164 60 16 13 17 16 4 25 -14 9 -99 11 -185 3z"/>
<path d="M2556 351 c-5 -8 -48 -20 -133 -36 -18 -4 -33 -12 -33 -20 0 -19 61
-25 79 -8 9 9 26 13 45 10 37 -6 86 20 86 45 0 19 -34 26 -44 9z"/>
<path d="M5240 346 c0 -19 91 -63 153 -75 38 -7 47 -6 43 4 -10 27 54 34 79 9
13 -13 21 -14 41 -6 32 15 31 37 -3 51 -74 30 -313 43 -313 17z"/>
<path d="M7761 345 c11 -11 174 -14 191 -4 21 13 -11 18 -105 16 -64 -1 -93
-5 -86 -12z"/>
<path d="M7470 302 c0 -15 46 -39 93 -47 25 -5 37 -4 37 4 0 6 11 11 25 11 14
0 25 -4 25 -9 0 -5 9 -7 20 -4 26 7 25 19 -1 33 -30 16 -199 26 -199 12z"/>
<path d="M4215 286 c-86 -27 -145 -75 -145 -117 0 -56 188 -85 236 -37 14 14
14 19 1 44 -18 36 -11 81 14 95 53 28 -28 40 -106 15z m-49 -120 c3 -8 18 -16
35 -20 42 -8 36 -26 -9 -26 -48 0 -88 26 -71 46 15 18 38 18 45 0z"/>
<path d="M2090 259 c-32 -18 -90 -36 -140 -45 -90 -16 -131 -31 -137 -51 -6
-17 24 -30 90 -38 53 -6 58 -5 55 11 -2 15 6 20 37 25 22 3 47 9 56 13 10 4
20 3 24 -3 3 -6 -4 -16 -17 -21 -21 -9 -20 -10 7 -5 52 11 129 60 140 90 8 22
6 29 -10 41 -26 19 -41 17 -105 -17z"/>
<path d="M4527 273 c-11 -18 37 -51 104 -71 79 -24 216 -46 250 -39 18 3 15 5
-11 6 -19 1 -42 6 -50 11 -10 7 12 10 73 10 83 0 118 -14 60 -23 -16 -3 -3 -3
28 -2 56 3 119 27 119 46 0 5 -17 17 -37 26 -28 11 -72 15 -178 14 -77 0 -169
4 -205 10 -123 19 -147 21 -153 12z"/>
<path d="M1398 253 c23 -2 61 -2 85 0 23 2 4 4 -43 4 -47 0 -66 -2 -42 -4z"/>
<path d="M2677 225 c-8 -20 -92 -61 -168 -80 -98 -26 -118 -54 -53 -75 89 -30
257 10 309 72 30 35 32 59 7 81 -23 21 -88 23 -95 2z m-42 -125 c10 -16 -44
-31 -99 -28 -75 5 -71 26 6 31 35 2 68 4 75 5 6 1 15 -3 18 -8z"/>
<path d="M5843 215 c-3 -10 -2 -25 4 -34 24 -39 136 -93 219 -105 l39 -6 -33
12 c-19 7 -32 18 -30 23 1 6 8 8 13 7 6 -2 26 -6 45 -9 85 -11 98 -22 45 -37
-11 -3 12 -4 50 -1 183 10 160 70 -35 94 -52 7 -126 23 -165 37 -97 35 -143
41 -152 19z"/>
<path d="M5380 180 c-12 -7 -12 -11 0 -25 19 -22 68 -47 74 -37 7 11 66 3 66
-9 0 -11 51 -12 68 0 21 13 -4 25 -78 40 -35 7 -76 19 -90 26 -16 8 -32 10
-40 5z"/>
<path d="M1398 175 c-3 -3 -52 -6 -109 -7 -105 -1 -149 -9 -149 -28 0 -13 46
-24 62 -14 18 12 81 11 90 0 8 -12 138 20 157 39 14 13 12 15 -15 15 -17 0
-33 -2 -36 -5z"/>
<path d="M7626 159 c18 -30 252 -49 261 -22 3 7 -6 14 -19 17 -45 9 -248 13
-242 5z"/>
<path d="M1998 133 c6 -2 18 -2 25 0 6 3 1 5 -13 5 -14 0 -19 -2 -12 -5z"/>
</g>
</svg>
